<?xml version="1.0" standalone="no"?>
<!DOCTYPE svg PUBLIC "-//W3C//DTD SVG 20010904//EN"
 "http://www.w3.org/TR/2001/REC-SVG-20010904/DTD/svg10.dtd">
<svg version="1.0" xmlns="http://www.w3.org/2000/svg"
 width="300.000000pt" height="300.000000pt" viewBox="0 0 300.000000 300.000000"
 preserveAspectRatio="xMidYMid meet">
<metadata>
Created by potrace 1.11, written by Peter Selinger 2001-2013
</metadata>
<g transform="translate(0.000000,300.000000) scale(0.100000,-0.100000)"
fill="#000000" stroke="none">
<path d="M1385 2835 c-157 -21 -268 -70 -392 -177 -105 -89 -179 -191 -245
-335 -43 -95 -57 -191 -58 -387 0 -185 -3 -195 -61 -196 -51 0 -89 -75 -89
-172 1 -75 6 -99 59 -247 42 -119 66 -155 127 -187 19 -10 34 -26 34 -35 0 -9
7 -22 15 -29 8 -7 15 -25 15 -41 0 -40 17 -79 35 -79 8 0 15 -6 15 -14 0 -8 7
-21 15 -30 9 -8 22 -31 31 -51 8 -20 21 -38 29 -41 7 -3 21 -23 29 -45 10 -25
22 -39 34 -39 11 0 27 -16 41 -40 12 -22 29 -40 36 -40 8 0 24 -18 35 -40 13
-26 27 -40 40 -40 29 0 25 -14 -12 -42 -23 -17 -95 -41 -228 -77 -381 -101
-366 -91 -234 -159 174 -89 376 -156 532 -177 l52 -7 -5 59 -6 58 23 -42 c12
-24 27 -43 34 -43 6 0 37 36 67 81 l55 80 12 -58 c7 -32 16 -79 22 -105 5 -27
15 -48 22 -48 9 0 7 27 -10 104 -31 148 -33 156 -47 156 -6 0 -36 11 -64 25
-37 17 -53 30 -53 43 0 15 7 19 35 17 20 -1 44 -10 55 -20 11 -10 26 -14 39
-10 11 3 30 0 43 -8 25 -16 124 -21 133 -7 3 5 12 7 19 4 8 -3 31 4 52 15 43
23 54 26 54 12 0 -6 -22 -22 -50 -38 -47 -26 -52 -33 -89 -123 -22 -52 -47
-112 -55 -132 -13 -31 -14 -38 -2 -38 7 0 21 21 31 48 10 26 31 76 47 111 l29
64 43 -74 c24 -41 58 -87 75 -102 l32 -28 87 16 c128 23 342 99 465 163 59 31
107 59 107 63 0 15 -240 90 -410 128 -52 12 -105 30 -117 41 -22 17 -22 20 -8
54 9 20 21 36 29 36 7 0 19 13 26 30 7 16 18 30 25 30 20 0 42 32 49 71 5 30
10 36 25 32 15 -4 26 9 53 66 18 39 38 71 45 71 7 0 21 20 32 45 11 25 25 45
30 45 6 0 13 12 17 28 13 57 38 98 78 127 47 35 60 59 112 205 42 117 55 231
35 293 -18 55 -48 87 -81 87 -15 0 -32 6 -37 13 -6 6 -13 98 -16 202 -4 106
-13 220 -21 258 -17 75 -73 194 -134 283 -92 136 -273 275 -407 313 -39 11
-248 42 -269 40 -6 -1 -56 -7 -111 -14z m340 -66 c99 -25 153 -53 243 -124 94
-73 170 -166 226 -274 72 -141 78 -168 83 -411 l5 -216 -27 -12 c-21 -10 -45
-10 -113 -1 -48 7 -168 13 -267 13 -193 1 -270 -10 -301 -45 -26 -29 -101 -26
-143 5 -48 36 -171 50 -356 42 -82 -4 -180 -11 -217 -16 -46 -7 -76 -6 -98 2
l-33 11 6 196 c7 222 18 283 76 405 49 103 111 186 195 262 119 107 230 160
381 184 85 13 250 3 340 -21z m-1052 -1083 c9 -7 17 -25 17 -40 0 -26 0 -26
-25 -10 -23 15 -25 15 -25 0 0 -9 7 -16 15 -16 29 0 39 -43 40 -170 0 -69 5
-132 10 -140 12 -20 23 -120 13 -120 -14 0 -56 74 -68 120 -7 25 -22 70 -35
100 -43 103 -42 223 1 271 20 22 33 23 57 5z m1731 -19 c31 -42 28 -169 -7
-252 -13 -33 -32 -85 -41 -115 -8 -30 -27 -68 -40 -85 l-25 -30 -1 30 c0 17 5
46 11 65 6 19 12 94 13 165 2 132 13 175 41 175 8 0 15 7 15 16 0 15 -2 15
-25 0 -25 -16 -25 -16 -25 13 0 31 23 53 49 48 8 -1 23 -15 35 -30z m-1345 4
c-44 -17 -107 -57 -121 -76 -10 -13 2 -27 18 -21 7 3 31 -10 54 -29 22 -18 57
-39 78 -46 58 -20 159 -15 220 10 69 28 72 27 62 -11 -23 -77 -95 -104 -265
-96 -112 5 -165 24 -184 65 -15 33 -25 134 -17 168 9 36 55 54 136 54 l65 0
-46 -18z m290 -5 c28 -15 47 -43 36 -54 -3 -3 -20 5 -37 18 -17 13 -52 32 -77
42 l-46 19 48 -5 c26 -3 60 -12 76 -20z m404 5 c-28 -9 -67 -30 -87 -45 -31
-23 -36 -25 -36 -9 0 10 4 24 9 31 12 19 79 41 126 41 l40 0 -52 -18z m306 8
c41 -14 51 -35 50 -106 0 -81 -17 -123 -59 -148 -31 -18 -52 -20 -175 -20
-174 0 -216 17 -231 93 l-6 31 76 -25 c42 -13 90 -24 106 -24 60 0 132 23 174
55 24 18 52 35 62 37 11 2 19 9 19 15 0 16 -90 73 -140 89 l-40 13 66 0 c36 1
80 -4 98 -10z m-1289 -59 c7 -17 26 -41 42 -53 20 -16 33 -40 43 -77 28 -105
66 -128 230 -136 117 -6 255 14 287 43 20 18 21 18 16 -44 -3 -48 -1 -63 9
-63 20 0 33 44 34 118 1 109 10 145 43 161 20 9 38 11 59 4 26 -7 33 -16 44
-58 9 -30 12 -75 9 -113 -7 -78 14 -143 39 -122 11 9 12 17 5 30 -9 17 -14 90
-7 90 2 0 17 -6 33 -14 74 -37 303 -45 404 -15 52 16 86 56 95 111 5 28 19 56
42 81 19 21 39 49 45 63 6 13 17 24 23 24 14 0 2 -99 -16 -132 -16 -30 -37
-105 -58 -211 -30 -150 -111 -304 -209 -400 l-49 -48 -7 39 c-7 48 -45 96 -96
122 -42 21 -140 40 -213 40 l-48 0 20 21 c18 20 23 20 50 9 28 -11 33 -10 51
11 24 29 26 86 4 118 -23 32 -41 13 -25 -27 9 -20 9 -36 2 -55 -10 -26 -12
-27 -34 -12 -22 14 -26 13 -63 -15 -52 -39 -94 -39 -134 0 -34 34 -52 37 -70
15 -10 -12 -16 -13 -27 -3 -11 9 -14 25 -10 60 7 57 -6 70 -28 29 -22 -43 -19
-78 10 -106 25 -26 45 -32 45 -15 0 18 45 10 58 -10 12 -19 10 -20 -52 -20
-97 0 -155 -16 -211 -58 -40 -31 -52 -47 -65 -90 l-16 -53 -50 53 c-108 115
-163 225 -199 398 -26 122 -32 143 -64 230 -22 57 -28 110 -12 110 5 0 14 -14
21 -30z m352 18 c-26 -26 -3 -108 30 -108 4 0 -1 9 -12 20 -22 22 -27 69 -8
88 14 14 84 16 93 2 3 -5 12 -7 20 -4 15 6 115 -51 115 -66 0 -6 -133 -50
-153 -50 -5 0 -6 4 -2 9 3 6 -6 6 -24 1 -51 -14 -117 8 -159 53 l-23 24 43 21
c49 24 100 30 80 10z m841 -10 c26 -12 46 -26 44 -32 -2 -6 -22 -24 -44 -40
-56 -39 -148 -44 -245 -14 -37 12 -65 26 -61 31 6 11 94 67 104 67 4 0 5 -17
2 -38 -4 -30 -1 -41 19 -57 l23 -20 -17 21 c-29 33 -22 84 12 97 32 12 117 4
163 -15z m-378 -679 c22 -4 72 -8 111 -9 57 0 73 -3 78 -16 4 -9 4 -19 2 -22
-20 -20 -324 -28 -443 -11 -89 12 -94 14 -86 34 4 11 24 15 77 16 39 0 91 7
116 14 44 13 62 12 145 -6z m-357 -85 c20 -1 78 -6 127 -13 95 -13 350 -7 409
10 18 5 34 5 40 -1 6 -6 14 -3 23 8 12 15 13 13 8 -18 -12 -65 -37 -135 -59
-158 -33 -37 -93 -64 -134 -60 -33 3 -37 6 -49 47 -7 24 -17 49 -23 56 -17 21
-66 28 -105 15 -31 -10 -37 -18 -51 -67 l-16 -55 -46 7 c-69 10 -119 42 -142
89 -25 53 -42 130 -33 153 6 15 8 15 11 3 2 -11 15 -16 40 -16z m581 -490 c-6
-54 -21 -123 -32 -153 l-20 -55 -23 30 c-40 49 -89 147 -76 152 23 7 132 92
144 111 7 11 14 19 15 17 2 -2 -2 -48 -8 -102z m-473 -19 c30 -14 54 -28 54
-32 0 -8 -37 -69 -72 -117 l-28 -39 -39 84 c-26 57 -41 106 -46 152 l-7 68 42
-45 c23 -25 66 -57 96 -71z"/>
<path d="M1034 1897 c-45 -13 -81 -39 -107 -77 -27 -39 -21 -41 39 -15 73 32
124 32 256 -2 115 -30 124 -28 130 21 3 29 1 30 -81 52 -108 30 -185 37 -237
21z"/>
<path d="M1805 1893 c-11 -3 -51 -14 -88 -25 -66 -20 -68 -22 -62 -47 11 -46
19 -47 134 -18 134 34 184 34 256 3 71 -32 73 -15 5 48 l-49 46 -88 -1 c-48
-1 -97 -3 -108 -6z"/>
<path d="M1154 1616 c-11 -29 1 -51 26 -51 18 0 26 6 28 23 2 15 -2 22 -12 22
-9 0 -16 5 -16 10 0 15 -20 12 -26 -4z"/>
<path d="M1802 1593 c2 -22 8 -28 28 -28 35 0 41 40 8 49 -37 9 -40 8 -36 -21z"/>
</g>
</svg>
